<svg width="77" height="61" viewBox="0 0 77 61" fill="none" xmlns="http://www.w3.org/2000/svg">
<path d="M64 51.75V53.875C64 57.4609 61.0781 60.25 57.625 60.25H6.625C3.03906 60.25 0.25 57.4609 0.25 53.875V19.875C0.25 16.4219 3.03906 13.5 6.625 13.5H8.75V19.875H7.42188C6.89062 19.875 6.625 20.2734 6.625 20.6719V53.0781C6.625 53.6094 6.89062 53.875 7.42188 53.875H56.8281C57.2266 53.875 57.625 53.6094 57.625 53.0781V51.75H64ZM69.5781 7.125H20.1719C19.6406 7.125 19.375 7.52344 19.375 7.92188V40.3281C19.375 40.8594 19.6406 41.125 20.1719 41.125H69.5781C69.9766 41.125 70.375 40.8594 70.375 40.3281V7.92188C70.375 7.52344 69.9766 7.125 69.5781 7.125ZM70.375 0.75C73.8281 0.75 76.75 3.67188 76.75 7.125V41.125C76.75 44.7109 73.8281 47.5 70.375 47.5H19.375C15.7891 47.5 13 44.7109 13 41.125V7.125C13 3.67188 15.7891 0.75 19.375 0.75H70.375ZM35.3125 15.625C35.3125 18.6797 32.9219 20.9375 30 20.9375C26.9453 20.9375 24.6875 18.6797 24.6875 15.625C24.6875 12.7031 26.9453 10.3125 30 10.3125C32.9219 10.3125 35.3125 12.7031 35.3125 15.625ZM25.75 28.375L30.9297 23.1953C31.5938 22.5312 32.5234 22.5312 33.1875 23.1953L38.5 28.375L52.1797 14.6953C52.8438 14.0312 53.7734 14.0312 54.4375 14.6953L64 24.125V34.75H25.75V28.375Z" fill="black"/>
</svg>
