<svg width="53" height="67" viewBox="0 0 53 67" fill="none" xmlns="http://www.w3.org/2000/svg">
<path d="M52.334 41.0703C44.8965 59.2656 27.3652 48.2422 27.3652 48.2422C22.0527 59.1328 13.1543 66.1719 2.92773 66.1719C0.802734 66.1719 0.669922 62.8516 2.92773 62.8516C11.4277 62.8516 18.8652 57.2734 23.7793 48.2422C18.334 50.3672 7.97461 51.9609 2.26367 37.3516C16.7402 31.375 23.5137 38.8125 26.0371 43.4609C27.3652 40.1406 28.2949 36.6875 28.8262 32.8359C28.8262 32.8359 10.3652 35.7578 9.03711 19.8203C24.8418 13.4453 29.2246 30.0469 29.2246 30.0469C29.4902 27.7891 29.7559 23.0078 29.7559 22.875C29.7559 22.875 15.5449 13.0469 24.709 0.960938C41.1777 6.67188 32.8105 22.4766 32.8105 22.4766C32.9434 22.7422 32.9434 25.6641 32.8105 26.9922C32.8105 26.9922 38.7871 15.1719 50.873 19.2891C50.3418 37.0859 32.1465 33.5 32.1465 33.5C31.4824 37.0859 30.5527 40.5391 29.4902 43.7266C29.4902 43.7266 40.5137 31.5078 52.334 41.0703Z" fill="black"/>
</svg>
