<svg width="69" height="61" viewBox="0 0 69 61" fill="none" xmlns="http://www.w3.org/2000/svg">
<path d="M6.54102 0.75H61.791C65.2441 0.75 68.166 3.67188 68.166 7.125V53.875C68.166 57.4609 65.2441 60.25 61.791 60.25H6.54102C2.95508 60.25 0.166016 57.4609 0.166016 53.875V7.125C0.166016 3.67188 2.95508 0.75 6.54102 0.75ZM6.54102 5C5.3457 5 4.41602 6.0625 4.41602 7.125V8.45312C4.41602 8.98438 4.68164 9.25 5.21289 9.25H20.6191C21.0176 9.25 21.416 8.98438 21.416 8.45312V5.79688C21.416 5.39844 21.0176 5 20.6191 5H6.54102ZM63.1191 17.75C63.5176 17.75 63.916 17.4844 63.916 16.9531V7.125C63.916 6.0625 62.8535 5 61.791 5H28.1895C27.9238 5 27.6582 5.13281 27.5254 5.39844L23.541 11.375H5.21289C4.68164 11.375 4.41602 11.7734 4.41602 12.1719V16.9531C4.41602 17.4844 4.68164 17.75 5.21289 17.75H63.1191ZM34.166 52.8125C42.9316 52.8125 50.1035 45.7734 50.1035 36.875C50.1035 28.1094 42.9316 20.9375 34.166 20.9375C25.2676 20.9375 18.2285 28.1094 18.2285 36.875C18.2285 45.7734 25.2676 52.8125 34.166 52.8125ZM34.166 25.1875C40.541 25.1875 45.8535 30.5 45.8535 36.875C45.8535 43.3828 40.541 48.5625 34.166 48.5625C27.6582 48.5625 22.4785 43.3828 22.4785 36.875C22.4785 30.5 27.6582 25.1875 34.166 25.1875ZM27.791 39C28.8535 39 29.916 38.0703 29.916 36.875C29.916 34.6172 31.7754 32.625 34.166 32.625C35.2285 32.625 36.291 31.6953 36.291 30.5C36.291 29.4375 35.2285 28.375 34.166 28.375C29.3848 28.375 25.666 32.2266 25.666 36.875C25.666 38.0703 26.5957 39 27.791 39Z" fill="black"/>
</svg>
